<svg xmlns="http://www.w3.org/2000/svg" viewBox="0 0 256 220" role="img" aria-label="Blender">
  <path fill="#f5792a" d="M98.6 0c8.4 0 15.4 6.7 15.4 15.2 0 4.4-1.9 8.4-4.9 11.2l-27.2 25 55.4.1c57.1 0 103.4 37.4 103.4 83.5s-46.3 83.5-103.4 83.5S33.9 181.1 33.9 135c0-25.6 14.3-48.6 36.8-63.9L10.8 70.9C4.8 70.9 0 66.1 0 60.1c0-6 4.8-10.8 10.8-10.8h80.1L51.5 16.5a10.7 10.7 0 0 1-1.3-15.1 10.7 10.7 0 0 1 15.1-1.3l52.5 43.8 40.3-37a15.4 15.4 0 0 1 10.5-4.1Z"/>
  <path fill="#ffffff" d="M137.3 80.8c38.1 0 69 24.3 69 54.2s-30.9 54.2-69 54.2-69-24.3-69-54.2 30.9-54.2 69-54.2Z"/>
  <path fill="#265787" d="M137.3 96.9c26.8 0 48.5 17 48.5 38s-21.7 38-48.5 38-48.5-17-48.5-38 21.7-38 48.5-38Z"/>
  <path fill="#5bb7e5" d="M137.3 112.3c17.1 0 31 10.1 31 22.6s-13.9 22.6-31 22.6-31-10.1-31-22.6 13.9-22.6 31-22.6Z"/>
</svg>
